<svg xmlns="http://www.w3.org/2000/svg" width="35" height="40" viewBox="0 0 35 40">
  <path id="Icon_awesome-calendar-alt" data-name="Icon awesome-calendar-alt" d="M0,36.25A3.751,3.751,0,0,0,3.75,40h27.5A3.751,3.751,0,0,0,35,36.25V15H0ZM25,20.938A.94.94,0,0,1,25.938,20h3.125a.94.94,0,0,1,.938.938v3.125a.94.94,0,0,1-.937.938H25.938A.94.94,0,0,1,25,24.063Zm0,10A.94.94,0,0,1,25.938,30h3.125a.94.94,0,0,1,.938.938v3.125a.94.94,0,0,1-.937.938H25.938A.94.94,0,0,1,25,34.063Zm-10-10A.94.94,0,0,1,15.937,20h3.125a.94.94,0,0,1,.938.938v3.125a.94.94,0,0,1-.937.938H15.937A.94.94,0,0,1,15,24.063Zm0,10A.94.94,0,0,1,15.937,30h3.125a.94.94,0,0,1,.938.938v3.125a.94.94,0,0,1-.937.938H15.937A.94.94,0,0,1,15,34.063Zm-10-10A.94.94,0,0,1,5.938,20H9.063a.94.94,0,0,1,.938.938v3.125A.94.94,0,0,1,9.063,25H5.938A.94.94,0,0,1,5,24.063Zm0,10A.94.94,0,0,1,5.938,30H9.063a.94.94,0,0,1,.938.938v3.125A.94.94,0,0,1,9.063,35H5.938A.94.94,0,0,1,5,34.063ZM31.25,5H27.5V1.25A1.254,1.254,0,0,0,26.25,0h-2.5A1.254,1.254,0,0,0,22.5,1.25V5h-10V1.25A1.254,1.254,0,0,0,11.25,0H8.75A1.254,1.254,0,0,0,7.5,1.25V5H3.75A3.751,3.751,0,0,0,0,8.75V12.5H35V8.75A3.751,3.751,0,0,0,31.25,5Z" fill="#fff"/>
</svg>
