<svg xmlns="http://www.w3.org/2000/svg" width="50" height="52.778" viewBox="0 0 50 52.778">
  <path id="Icon_metro-location-city" data-name="Icon metro-location-city" d="M39.76,30.141V13.475L31.427,5.141l-8.333,8.333V19.03H6.427V57.919h50V30.141H39.76ZM17.538,52.364H11.982V46.808h5.556Zm0-11.111H11.982V35.7h5.556Zm0-11.111H11.982V24.586h5.556ZM34.2,52.364H28.649V46.808H34.2Zm0-11.111H28.649V35.7H34.2Zm0-11.111H28.649V24.586H34.2Zm0-11.111H28.649V13.475H34.2ZM50.871,52.364H45.316V46.808h5.556v5.556Zm0-11.111H45.316V35.7h5.556Z" transform="translate(-6.427 -5.141)" fill="#fff"/>
</svg>
