<svg xmlns="http://www.w3.org/2000/svg" width="53.002" height="53.103" viewBox="0 0 53.002 53.103">
  <path id="Icon_feather-phone" data-name="Icon feather-phone" d="M53.166,40.509v7.542a5.028,5.028,0,0,1-5.48,5.028A50.565,50.565,0,0,1,38.7,51.253,49.233,49.233,0,0,1,25.99,45.361,49.023,49.023,0,0,1,10.906,30.277a49.752,49.752,0,0,1-7.718-21.8,5.028,5.028,0,0,1,5-5.48h7.542a5.028,5.028,0,0,1,5.028,4.324,32.279,32.279,0,0,0,1.76,7.064,5.028,5.028,0,0,1-1.131,5.3L18.2,22.886A40.224,40.224,0,0,0,33.281,37.97l3.193-3.193a5.028,5.028,0,0,1,5.3-1.131,32.28,32.28,0,0,0,7.064,1.76,5.028,5.028,0,0,1,4.324,5.1Z" transform="translate(-1.666 -1.5)" fill="none" stroke="#fff" stroke-linecap="round" stroke-linejoin="round" stroke-width="3"/>
</svg>
